<svg width="281" height="390" viewBox="0 0 281 390" fill="none" xmlns="http://www.w3.org/2000/svg">
<path d="M8.95554 364.125L6.38088 361.639L3.86621 364.125L6.43821 366.643L8.95554 364.125Z" fill="#0D1D32"/>
<path d="M16.4766 386.859L14.1312 384.571L11.6152 387.059L14.1606 389.576L16.4766 387.26L18.8486 389.576L21.3659 387.059L18.8206 384.571L16.4766 386.859Z" fill="#0D1D32"/>
<path d="M24.082 387.117L26.6567 389.605L29.1714 387.117L26.5994 384.6L24.082 387.117Z" fill="#0D1D32"/>
<path d="M43.4126 364.783L40.8379 362.297L38.3232 364.783L40.8952 367.301L43.4126 364.783Z" fill="#0D1D32"/>
<path d="M52.9065 375.964C52.9065 378.271 51.8478 379.424 49.7318 379.424C49.7251 379.424 49.7238 379.428 49.7171 379.428C49.7118 379.428 49.7091 379.424 49.7038 379.424H48.7038C47.5785 379.424 46.7398 379.196 46.1865 378.737C46.3958 378.643 46.7118 378.481 47.1305 378.252L47.6731 375.135C44.3945 372.561 42.0491 370.88 40.6398 370.088C39.2278 369.297 37.8931 368.901 36.6358 368.901C35.5878 368.901 34.3198 369.187 32.8318 369.76L33.4331 372.533C34.7291 372.247 35.6545 372.103 36.2078 372.103C37.2171 372.103 38.2745 372.404 39.3798 373.004C40.4865 373.604 42.1931 374.812 44.4985 376.621C40.4198 378.491 36.1211 379.424 31.6025 379.424C31.5971 379.424 31.5945 379.428 31.5878 379.428C31.5825 379.428 31.5798 379.424 31.5745 379.424C30.3545 379.424 29.2198 379.072 28.1718 378.367C28.2478 377.985 28.2851 377.547 28.2851 377.051V371.417L25.1691 371.847L25.1985 376.079C25.1985 378.309 24.1291 379.424 21.9945 379.424C21.9891 379.424 21.9865 379.428 21.9811 379.428C21.9745 379.428 21.9731 379.424 21.9665 379.424C20.6118 379.424 19.3545 379.015 18.1918 378.195C18.2491 377.813 18.2771 377.433 18.2771 377.051V371.417L15.1891 371.847V376.079C15.1891 377.261 14.8611 378.113 14.2038 378.639C13.5451 379.161 12.5211 379.424 11.1291 379.424C11.1158 379.424 11.1118 379.432 11.1011 379.432C11.0891 379.432 11.0851 379.424 11.0718 379.424C9.16513 379.424 8.1158 378.596 7.92646 376.936V368.415L4.83847 368.844L4.86647 381.855C4.86647 384.791 3.27446 386.259 0.0917969 386.259L0.349131 388.861C2.90246 388.861 4.80513 388.313 6.05313 387.216C7.30246 386.12 7.92646 384.372 7.92646 381.969V381.34C8.6318 382.256 9.6798 382.713 11.0718 382.713C11.0785 382.713 11.0798 382.708 11.0865 382.708C11.0918 382.708 11.0945 382.713 11.1011 382.713C14.0358 382.713 16.0665 382.008 17.1918 380.597C18.6585 382.008 20.2518 382.713 21.9665 382.713C24.3118 382.713 26.0171 382.093 27.0851 380.855C28.4371 382.093 29.9345 382.713 31.5745 382.713C31.5798 382.713 31.5825 382.708 31.5878 382.708C31.5945 382.708 31.5971 382.713 31.6025 382.713C33.8145 382.713 35.9118 382.475 37.8931 381.997C39.8771 381.521 41.9838 380.759 44.2131 379.711C44.8238 381.712 46.3105 382.713 48.6745 382.713H49.7038C53.9158 382.713 56.0225 380.769 56.0225 376.88V361.837L52.9345 362.268L52.9065 375.964Z" fill="#0D1D32"/>
<path d="M60.6565 382.713H63.7738V361.838L60.6565 362.268V382.713Z" fill="#0D1D32"/>
<path d="M77.0119 379.111C76.0773 379.416 75.1146 379.568 74.1239 379.568C72.8466 379.607 71.8359 379.287 71.0933 378.611C70.3493 377.933 69.9786 376.957 69.9786 375.68C69.9786 374.555 70.3253 373.639 71.0213 372.933C71.7159 372.229 72.5799 371.876 73.6093 371.876C74.6186 371.876 75.4386 372.215 76.0679 372.891C76.6973 373.568 77.0119 374.469 77.0119 375.593V379.111ZM73.8946 368.701C71.9506 368.701 70.3399 369.369 69.0626 370.703C67.7853 372.037 67.1466 373.735 67.1466 375.793C67.1466 377.911 67.7573 379.592 68.9773 380.841C70.1973 382.089 71.7986 382.713 73.7799 382.713C74.7906 382.713 75.8693 382.467 77.0119 381.971C77.0119 383.475 76.3399 384.568 74.9959 385.245C73.6519 385.92 71.5599 386.259 68.7186 386.259L69.0626 388.861C76.4213 388.861 80.0999 386.592 80.0999 382.056V375.364C80.0999 373.363 79.5239 371.752 78.3706 370.532C77.2159 369.312 75.7253 368.701 73.8946 368.701Z" fill="#0D1D32"/>
<path d="M99.7737 367.5L102.147 369.816L104.664 367.3L102.119 364.811L99.7737 367.099L97.4297 364.811L94.9124 367.3L97.459 369.816L99.7737 367.5Z" fill="#0D1D32"/>
<path d="M107.151 376.078C107.151 378.309 106.083 379.424 103.95 379.424H97.1433C95.5046 379.424 94.2793 379.109 93.4686 378.481C92.6593 377.852 92.254 376.861 92.254 375.506C92.254 374.744 92.3873 373.561 92.654 371.961L89.966 371.617C89.566 373.429 89.366 375.03 89.366 376.422C89.366 378.5 89.9606 380.068 91.1526 381.125C92.3446 382.184 94.0926 382.713 96.4006 382.713H103.978C106.055 382.694 107.619 382.202 108.667 381.24C109.715 380.277 110.239 378.881 110.239 377.05V368.414L107.123 368.844L107.151 376.078Z" fill="#0D1D32"/>
<path d="M122.879 382.713C124.958 382.713 126.525 382.228 127.583 381.254C128.641 380.282 129.17 378.881 129.17 377.052V368.414L126.082 368.845V376.078C126.082 378.309 125.023 379.424 122.907 379.424H120.649C120.637 379.424 120.631 379.432 120.621 379.433C120.609 379.432 120.605 379.424 120.591 379.424C118.475 379.424 117.418 378.272 117.418 375.964V361.838L114.301 362.268L114.33 376.88C114.33 380.769 116.426 382.713 120.621 382.713H122.879Z" fill="#0D1D32"/>
<path d="M124.88 386.859L122.535 384.571L120.019 387.059L122.564 389.576L124.88 387.26L127.254 389.576L129.771 387.059L127.226 384.571L124.88 386.859Z" fill="#0D1D32"/>
<path d="M141.895 379.481C141.76 379.481 141.337 379.496 140.623 379.524C139.908 379.553 139.397 379.567 139.092 379.567C137.796 379.567 136.765 379.233 136.004 378.567C135.241 377.899 134.861 376.937 134.861 375.679C134.861 374.555 135.208 373.639 135.904 372.933C136.599 372.229 137.463 371.876 138.492 371.876C139.501 371.876 140.321 372.215 140.951 372.891C141.58 373.567 141.895 374.468 141.895 375.593V379.481ZM177.239 375.964C177.239 378.272 176.18 379.424 174.064 379.424C174.057 379.424 174.056 379.428 174.049 379.428C174.043 379.428 174.041 379.424 174.035 379.424H173.035C171.911 379.424 171.072 379.196 170.519 378.737C170.728 378.643 171.043 378.481 171.463 378.252L172.005 375.135C168.727 372.563 166.381 370.88 164.972 370.088C163.56 369.297 162.225 368.901 160.968 368.901C159.92 368.901 158.651 369.187 157.164 369.76L157.764 372.533C159.061 372.247 159.985 372.104 160.539 372.104C161.549 372.104 162.607 372.404 163.712 373.005C164.817 373.605 166.525 374.812 168.831 376.621C164.752 378.491 160.453 379.424 155.935 379.424C155.915 379.424 155.908 379.435 155.889 379.436C155.872 379.435 155.867 379.424 155.848 379.424C153.732 379.424 152.675 378.272 152.675 375.964V361.839L149.557 362.268L149.587 376.88C149.587 377.491 149.624 377.995 149.7 378.396C148.804 379.081 147.756 379.424 146.555 379.424H144.983V375.364C144.983 373.363 144.407 371.752 143.253 370.532C142.099 369.312 140.608 368.701 138.777 368.701C136.833 368.701 135.223 369.369 133.945 370.703C132.668 372.037 132.029 373.733 132.029 375.792C132.029 377.891 132.645 379.567 133.873 380.827C135.103 382.084 136.728 382.713 138.749 382.713H141.837C141.628 383.953 140.851 384.852 139.507 385.415C138.163 385.977 136.195 386.259 133.601 386.259L133.945 388.861C140.941 388.861 144.611 386.812 144.955 382.713H146.556C148.041 382.712 149.452 382.103 150.787 380.883C151.797 382.104 153.493 382.713 155.876 382.713C155.889 382.713 155.893 382.704 155.904 382.704C155.917 382.704 155.921 382.713 155.935 382.713C158.145 382.713 160.244 382.475 162.225 381.999C164.208 381.521 166.315 380.759 168.545 379.711C169.155 381.712 170.643 382.713 173.007 382.713H174.035C178.248 382.713 180.355 380.769 180.355 376.88V361.839L177.267 362.268L177.239 375.964Z" fill="#0D1D32"/>
<path d="M184.987 382.713H188.105V361.838L184.987 362.268V382.713Z" fill="#0D1D32"/>
<path d="M204.576 364.069L206.948 366.385L209.465 363.87L206.92 361.381L204.576 363.669L202.23 361.381L199.714 363.87L202.26 366.385L204.576 364.069Z" fill="#0D1D32"/>
<path d="M204.518 379.853C203.412 379.833 202.506 379.452 201.801 378.709C201.097 377.965 200.744 377.043 200.744 375.936C200.744 374.772 201.109 373.796 201.844 373.004C202.578 372.215 203.517 371.819 204.66 371.819C205.518 371.819 206.653 372.065 208.064 372.561V377.051C208.064 377.795 208.121 378.452 208.236 379.024C207.014 379.596 205.776 379.873 204.518 379.853ZM217.785 375.421C217.785 374.316 218.166 373.429 218.93 372.763C219.692 372.095 220.684 371.761 221.904 371.761C222.8 371.761 224.114 372.008 225.849 372.504L226.708 369.845C224.438 369.083 222.665 368.701 221.388 368.701C219.482 368.701 217.905 369.272 216.657 370.417C215.408 371.56 214.782 373.029 214.782 374.821C214.782 376.345 215.193 377.871 216.013 379.396C215.497 379.415 214.678 379.424 213.553 379.424C212.714 379.424 212.105 379.215 211.724 378.795C211.342 378.376 211.153 377.68 211.153 376.708L211.124 367.3L208.036 367.728V369.416C206.796 368.959 205.624 368.729 204.518 368.729C202.593 368.729 200.996 369.44 199.728 370.86C198.46 372.28 197.826 373.992 197.826 375.992C197.826 377.976 198.456 379.635 199.713 380.968C200.972 382.303 202.573 382.971 204.518 382.971C206.044 382.971 207.729 382.493 209.58 381.541C210.437 382.323 211.762 382.713 213.553 382.713C218.853 382.713 223.648 382.313 227.936 381.512L228.596 378.223C225.068 378.833 221.893 379.196 219.072 379.311C218.214 377.976 217.785 376.679 217.785 375.421Z" fill="#0D1D32"/>
<path d="M245.208 367.071L242.635 364.584L240.119 367.071L242.691 369.588L245.208 367.071Z" fill="#0D1D32"/>
<path d="M267.513 376.394C267.513 377.366 267.232 378.114 266.669 378.64C266.107 379.162 265.312 379.424 264.281 379.424H253.272V374.25C256.419 373.048 258.609 372.276 259.849 371.933C261.089 371.589 262.347 371.418 263.624 371.418C264.768 371.418 265.703 371.744 266.427 372.39C267.151 373.038 267.513 373.888 267.513 374.936V376.394ZM277.236 362.268L277.208 375.965C277.208 378.272 276.149 379.424 274.033 379.424C274.027 379.424 274.024 379.428 274.017 379.429C274.012 379.428 274.011 379.424 274.004 379.424C272.764 379.424 271.593 379.044 270.487 378.281C270.563 377.92 270.601 377.509 270.601 377.052L270.631 374.564C270.649 372.696 270.063 371.17 268.872 369.988C267.68 368.808 266.159 368.216 264.311 368.216C262.88 368.216 261.388 368.454 259.835 368.93C258.281 369.408 256.095 370.274 253.272 371.533V368.416L250.155 368.845L250.184 379.424H247.525C246.305 379.424 245.171 379.073 244.123 378.366C244.199 377.985 244.236 377.548 244.236 377.052V371.418L241.12 371.848L241.149 376.08C241.149 378.31 240.08 379.424 237.945 379.424C237.933 379.424 237.929 379.432 237.917 379.433C237.905 379.432 237.901 379.424 237.888 379.424C235.772 379.424 234.715 378.272 234.715 375.965V361.838L231.597 362.268L231.627 376.88C231.627 380.769 233.723 382.713 237.917 382.713C240.263 382.713 241.968 382.093 243.036 380.856C244.388 382.093 245.885 382.713 247.525 382.713H251.671H264.253C266.616 382.713 268.343 382.065 269.429 380.769C270.783 382.065 272.308 382.713 274.004 382.713C278.216 382.713 280.323 380.769 280.323 376.88V361.838L277.236 362.268Z" fill="#0D1D32"/>
<path d="M7.96932 317.477L8.01733 339.32C8.01733 344.248 5.34533 346.712 0 346.712L0.432007 351.08C4.72001 351.08 7.91332 350.16 10.0093 348.32C12.1053 346.48 13.1533 343.544 13.1533 339.511V316.757L7.96932 317.477Z" fill="url(#paint0_linear_675_2765)"/>
<path d="M19.9707 306.437L20.0187 330.968C20.0187 337.496 23.5387 340.76 30.58 340.76C33.2694 340.76 35.908 340.009 38.5 338.504C40.6427 340.009 43.3014 340.76 46.4694 340.76H61.2534L65.1894 336.153C66.2787 331.992 66.8227 328.504 66.8227 325.688C66.8227 320.118 64.8227 315.741 60.8214 312.557C56.8214 309.373 51.2041 307.781 43.9734 307.781L43.492 312.582C46.596 312.582 49.3574 312.973 51.7747 313.758C54.188 314.542 56.1094 315.582 57.5334 316.877C58.9574 318.174 60.0294 319.598 60.7494 321.152C61.4707 322.702 61.8307 324.326 61.8307 326.024C61.8307 328.84 61.3494 331.912 60.3907 335.24H54.5814C55.5094 332.553 55.9734 330.056 55.9734 327.752C55.9734 324.84 54.8854 322.318 52.7107 320.19C50.532 318.062 47.924 316.998 44.884 316.998C41.62 316.998 38.9334 318.062 36.8214 320.19C34.7094 322.318 33.6534 325.016 33.6534 328.278C33.6534 330.616 34.0987 332.68 34.9961 334.472C33.7481 334.984 32.2747 335.24 30.58 335.24C30.5694 335.24 30.5654 335.246 30.556 335.246C30.5454 335.246 30.5427 335.24 30.532 335.24C26.98 335.24 25.2041 333.304 25.2041 329.432V305.717L19.9707 306.437ZM40.8534 333.344C39.5401 332.08 38.884 330.422 38.884 328.376C38.884 326.486 39.452 324.958 40.5894 323.79C41.724 322.622 43.2201 322.04 45.0774 322.04C46.7414 322.04 48.1334 322.686 49.2534 323.984C50.372 325.278 50.9347 326.792 50.9347 328.52C50.9347 330.376 50.5014 332.616 49.6374 335.24H46.2294C43.956 335.24 42.1641 334.608 40.8534 333.344Z" fill="url(#paint1_linear_675_2765)"/>
<path d="M77.0467 316.758V322.134H80.0227C81.944 322.134 83.5107 322.67 84.728 323.744C85.944 324.814 86.568 326.214 86.6 327.942L86.648 330.344C86.648 331.881 86.184 333.08 85.2547 333.944C84.3267 334.808 83 335.24 81.2707 335.24H69.2227L70.1333 340.76H81.224C88.264 340.76 91.8173 337.593 91.88 331.256L91.832 327.368C91.832 324.136 90.84 321.558 88.8547 319.638C86.872 317.718 84.3107 316.758 81.1747 316.758H77.0467Z" fill="url(#paint2_linear_675_2765)"/>
<path d="M100.568 317.477L100.617 339.32C100.617 344.248 97.9454 346.712 92.6001 346.712L93.0321 351.08C97.3201 351.08 100.513 350.16 102.609 348.32C104.705 346.48 105.753 343.544 105.753 339.511V316.757L100.568 317.477Z" fill="url(#paint3_linear_675_2765)"/>
<path d="M98.9375 309.556L103.257 313.781L107.481 309.556L103.161 305.38L98.9375 309.556Z" fill="url(#paint4_linear_675_2765)"/>
<path d="M120.132 344.265C119.283 345.064 118.859 346.073 118.859 347.289C118.859 348.281 119.081 349.161 119.531 349.929H117.083V353.289H128.124L128.844 349.929H122.698C122.218 349.352 121.979 348.68 121.979 347.913C121.979 347.369 122.177 346.92 122.58 346.568C122.98 346.216 123.516 346.041 124.188 346.041C124.986 346.041 126.012 346.281 127.26 346.76V343.976C125.788 343.368 124.475 343.065 123.323 343.065C122.043 343.065 120.979 343.464 120.132 344.265Z" fill="url(#paint5_linear_675_2765)"/>
<path d="M131.292 306.437L131.245 329.432C131.245 333.304 129.468 335.24 125.915 335.24H125.867H124.524L120.395 312.005L115.259 313.302L119.675 335.24H109.354L110.266 340.76H125.867C132.94 340.76 136.476 337.496 136.476 330.968V305.717L131.292 306.437Z" fill="url(#paint6_linear_675_2765)"/>
<path d="M144.252 306.437V340.76H149.485V305.717L144.252 306.437Z" fill="url(#paint7_linear_675_2765)"/>
<path d="M177.136 308.788L173.2 304.948L168.976 309.124L173.248 313.35L177.136 309.46L181.12 313.35L185.345 309.124L181.073 304.948L177.136 308.788Z" fill="url(#paint8_linear_675_2765)"/>
<path d="M193.121 320.023L195.907 324.872H207.187C209.076 324.872 210.563 325.344 211.651 326.287C212.74 327.232 213.284 328.504 213.284 330.104C213.284 331.704 212.731 332.96 211.627 333.872C210.523 334.784 209.027 335.24 207.139 335.24H192.211C190.801 335.24 189.777 334.888 189.137 334.184C188.496 333.48 188.177 332.312 188.177 330.68L188.129 314.885L182.944 315.607V318.439C180.863 317.671 178.896 317.287 177.041 317.287C173.807 317.287 171.127 318.479 168.999 320.863C166.871 323.248 165.808 326.119 165.808 329.48C165.808 332.808 166.864 335.592 168.976 337.832C171.088 340.073 173.776 341.193 177.041 341.193C179.6 341.193 182.432 340.393 185.537 338.792C186.977 340.105 189.2 340.76 192.211 340.76H207.379C210.803 340.76 213.516 339.816 215.515 337.929C217.516 336.04 218.515 333.448 218.515 330.152C218.515 327.08 217.444 324.632 215.299 322.808C213.155 320.984 210.307 320.071 206.755 320.071H199.267L212.276 305.815L207.235 303.077L193.121 320.023ZM177.041 335.96C175.183 335.928 173.663 335.288 172.48 334.041C171.295 332.792 170.704 331.24 170.704 329.383C170.704 327.432 171.319 325.792 172.552 324.464C173.783 323.135 175.36 322.472 177.28 322.472C178.72 322.472 180.624 322.887 182.992 323.719V331.256C182.992 332.504 183.089 333.608 183.28 334.568C181.299 335.496 179.288 335.961 177.247 335.961C177.179 335.961 177.109 335.96 177.041 335.96Z" fill="url(#paint9_linear_675_2765)"/>
<path d="M257.112 305.381L260.04 308.311L262.969 305.381L259.992 302.453L257.112 305.381Z" fill="url(#paint10_linear_675_2765)"/>
<path d="M259.992 311.239L256.056 307.398L251.831 311.575L256.104 315.799L259.992 311.911L263.976 315.799L268.2 311.575L263.928 307.398L259.992 311.239Z" fill="url(#paint11_linear_675_2765)"/>
<path d="M272.521 317.429V329.575C272.521 333.32 270.745 335.191 267.193 335.191C265.529 335.191 263.896 334.871 262.296 334.231C262.552 333.271 262.68 332.263 262.68 331.207V321.751L257.448 322.471L257.496 329.575C257.496 333.32 255.703 335.191 252.12 335.191C250.711 335.191 249.223 334.871 247.655 334.231C247.911 333.271 248.039 332.279 248.039 331.255V321.797L242.805 322.517L242.853 329.623C242.853 333.367 241.061 335.239 237.477 335.239C237.467 335.239 237.464 335.245 237.453 335.245C237.443 335.245 237.44 335.239 237.429 335.239C234.229 335.239 232.469 333.847 232.149 331.063V316.757L226.964 317.477L227.013 339.32C227.013 344.248 224.341 346.712 218.996 346.712L219.428 351.08C223.716 351.08 226.909 350.16 229.005 348.32C231.101 346.48 232.149 343.544 232.149 339.511V338.455C233.333 339.992 235.093 340.759 237.429 340.759C237.44 340.759 237.443 340.751 237.453 340.751C237.464 340.751 237.467 340.759 237.477 340.759C240.997 340.759 243.653 339.863 245.447 338.071C247.879 339.831 250.264 340.712 252.599 340.712C255.736 340.712 258.216 339.848 260.04 338.119C262.759 339.848 265.417 340.712 268.009 340.712C271.208 340.712 273.625 339.888 275.257 338.239C276.889 336.591 277.705 334.247 277.705 331.207V316.708L272.521 317.429Z" fill="url(#paint12_linear_675_2765)"/>
<path d="M245.186 123.481V156.181L237.312 165.52V114.002L245.186 123.481Z" fill="#0D1D32"/>
<path d="M188.542 67.5948L196.415 76.9961V65.1681L188.542 55.7374V67.5948Z" fill="url(#paint13_linear_675_2765)"/>
<path d="M196.415 89.2506V190.235L188.542 199.635L179.356 210.596L171.483 219.996L162.735 230.437L156.83 237.488L154.862 239.836V227.825L162.735 218.429L171.483 207.989L179.356 198.589L188.542 187.624V79.8546L196.415 89.2506Z" fill="#0D1D32"/>
<path d="M171.483 35.2487L162.735 24.8073L154.862 15.4073V27.6687V64.1913L162.735 73.5913V37.0687L171.483 47.5087V182.926L162.735 193.367V156.843L154.862 166.243V202.766V215.027L162.735 205.627L171.483 195.186L179.356 185.786V185.694V44.7407V44.6487L171.483 35.2487Z" fill="#0D1D32"/>
<path d="M77.8779 75.9467V204.584L70.0046 195.184L62.1312 185.788L46.3846 166.988L38.5112 157.593V122.807L46.3846 113.407V154.981L54.2579 164.381L62.1312 173.777L70.0046 183.177V97.2173L62.1312 106.617V94.6107L70.0046 85.2106V85.3427L77.5899 76.288L77.8779 75.9467Z" fill="#0D1D32"/>
<path d="M213.474 85.5875L205.601 76.1609V179.604L213.474 170.205V85.5875Z" fill="#0D1D32"/>
<path d="M229.439 104.606V174.906L154.862 263.586V252.095L205.601 191.527V191.453L213.474 182.114V182.154L221.566 172.495V95.1673L229.439 104.606Z" fill="#0D1D32"/>
<path d="M104.123 44.824V56.6293L138.021 16.032L137.803 264.105L128.617 253.143V39.6493L104.123 68.8893V223.903L95.3733 213.463V55.196L87.5 64.5333V216.073L141.061 280L145.676 274.528V7.17999V4.672L141.763 0L104.123 44.824ZM120.639 243.617L111.996 233.303V71.5013L120.744 61.056V243.743L120.639 243.617Z" fill="url(#paint14_linear_675_2765)"/>
<defs>
<linearGradient id="paint0_linear_675_2765" x1="-112.598" y1="356.481" x2="16.9192" y2="332.101" gradientUnits="userSpaceOnUse">
<stop stop-color="#B3854F"/>
<stop offset="1e-08" stop-color="#B3854F"/>
<stop offset="1" stop-color="#E1B277"/>
</linearGradient>
<linearGradient id="paint1_linear_675_2765" x1="-259.043" y1="380.004" x2="68.0437" y2="318.435" gradientUnits="userSpaceOnUse">
<stop stop-color="#B3854F"/>
<stop offset="1e-08" stop-color="#B3854F"/>
<stop offset="1" stop-color="#E1B277"/>
</linearGradient>
<linearGradient id="paint2_linear_675_2765" x1="-72.2036" y1="357.418" x2="93.0029" y2="326.321" gradientUnits="userSpaceOnUse">
<stop stop-color="#B3854F"/>
<stop offset="1e-08" stop-color="#B3854F"/>
<stop offset="1" stop-color="#E1B277"/>
</linearGradient>
<linearGradient id="paint3_linear_675_2765" x1="-19.9978" y1="356.481" x2="109.52" y2="332.101" gradientUnits="userSpaceOnUse">
<stop stop-color="#B3854F"/>
<stop offset="1e-08" stop-color="#B3854F"/>
<stop offset="1" stop-color="#E1B277"/>
</linearGradient>
<linearGradient id="paint4_linear_675_2765" x1="50.0269" y1="319.592" x2="107.718" y2="308.732" gradientUnits="userSpaceOnUse">
<stop stop-color="#B3854F"/>
<stop offset="1e-08" stop-color="#B3854F"/>
<stop offset="1" stop-color="#E1B277"/>
</linearGradient>
<linearGradient id="paint5_linear_675_2765" x1="45.2809" y1="363.269" x2="128.957" y2="347.519" gradientUnits="userSpaceOnUse">
<stop stop-color="#B3854F"/>
<stop offset="1e-08" stop-color="#B3854F"/>
<stop offset="1" stop-color="#E1B277"/>
</linearGradient>
<linearGradient id="paint6_linear_675_2765" x1="-80.577" y1="363.139" x2="140.937" y2="321.442" gradientUnits="userSpaceOnUse">
<stop stop-color="#B3854F"/>
<stop offset="1e-08" stop-color="#B3854F"/>
<stop offset="1" stop-color="#E1B277"/>
</linearGradient>
<linearGradient id="paint7_linear_675_2765" x1="73.2971" y1="337.448" x2="153.169" y2="322.413" gradientUnits="userSpaceOnUse">
<stop stop-color="#B3854F"/>
<stop offset="1e-08" stop-color="#B3854F"/>
<stop offset="1" stop-color="#E1B277"/>
</linearGradient>
<linearGradient id="paint8_linear_675_2765" x1="75.2639" y1="328.329" x2="185.793" y2="307.524" gradientUnits="userSpaceOnUse">
<stop stop-color="#B3854F"/>
<stop offset="1e-08" stop-color="#B3854F"/>
<stop offset="1" stop-color="#E1B277"/>
</linearGradient>
<linearGradient id="paint9_linear_675_2765" x1="-138.964" y1="387.244" x2="219.208" y2="319.823" gradientUnits="userSpaceOnUse">
<stop stop-color="#B3854F"/>
<stop offset="1e-08" stop-color="#B3854F"/>
<stop offset="1" stop-color="#E1B277"/>
</linearGradient>
<linearGradient id="paint10_linear_675_2765" x1="223.581" y1="312.24" x2="263.126" y2="304.796" gradientUnits="userSpaceOnUse">
<stop stop-color="#B3854F"/>
<stop offset="1e-08" stop-color="#B3854F"/>
<stop offset="1" stop-color="#E1B277"/>
</linearGradient>
<linearGradient id="paint11_linear_675_2765" x1="158.119" y1="330.778" x2="268.648" y2="309.973" gradientUnits="userSpaceOnUse">
<stop stop-color="#B3854F"/>
<stop offset="1e-08" stop-color="#B3854F"/>
<stop offset="1" stop-color="#E1B277"/>
</linearGradient>
<linearGradient id="paint12_linear_675_2765" x1="-155.238" y1="405.73" x2="281.934" y2="323.439" gradientUnits="userSpaceOnUse">
<stop stop-color="#B3854F"/>
<stop offset="1e-08" stop-color="#B3854F"/>
<stop offset="1" stop-color="#E1B277"/>
</linearGradient>
<linearGradient id="paint13_linear_675_2765" x1="188.542" y1="66.3664" x2="196.415" y2="66.3664" gradientUnits="userSpaceOnUse">
<stop stop-color="#B3854F"/>
<stop offset="1e-08" stop-color="#B3854F"/>
<stop offset="1" stop-color="#E1B277"/>
</linearGradient>
<linearGradient id="paint14_linear_675_2765" x1="87.5008" y1="140" x2="145.676" y2="140" gradientUnits="userSpaceOnUse">
<stop stop-color="#B3854F"/>
<stop offset="1e-08" stop-color="#B3854F"/>
<stop offset="1" stop-color="#E1B277"/>
</linearGradient>
</defs>
</svg>
