<svg width="281" height="281" viewBox="0 0 281 281" fill="none" xmlns="http://www.w3.org/2000/svg">
<g clip-path="url(#clip0_33_42)">
<path d="M140.5 281C218.096 281 281 218.096 281 140.5C281 62.904 218.096 0 140.5 0C62.904 0 0 62.904 0 140.5C0 218.096 62.904 281 140.5 281Z" fill="#192845"/>
<path d="M240.187 123.815V156.515L232.312 165.854V114.336L240.187 123.815Z" fill="white"/>
<path d="M183.541 67.9276L191.414 77.3289V65.5009L183.541 56.0703V67.9276Z" fill="url(#paint0_linear_33_42)"/>
<path d="M191.415 89.5873V190.572L183.541 199.972L174.356 210.933L166.483 220.333L157.735 230.774L151.829 237.825L149.861 240.173V228.162L157.735 218.766L166.483 208.326L174.356 198.926L183.541 187.961V80.1914L191.415 89.5873Z" fill="white"/>
<path d="M166.483 35.5835L157.735 25.1422L149.861 15.7422V28.0035V64.5262L157.735 73.9262V37.4035L166.483 47.8435V183.261L157.735 193.702V157.178L149.861 166.578V203.101V215.362L157.735 205.962L166.483 195.521L174.356 186.121V186.029V45.0755V44.9835L166.483 35.5835Z" fill="white"/>
<path d="M72.8784 76.2852V204.923L65.005 195.523L57.1317 186.127L41.385 167.327L33.5117 157.932V123.146L41.385 113.746V155.32L49.2584 164.72L57.1317 174.116L65.005 183.516V97.5559L57.1317 106.956V94.9492L65.005 85.5492V85.6812L72.5904 76.6266L72.8784 76.2852Z" fill="white"/>
<path d="M208.475 85.9228L200.602 76.4961V179.939L208.475 170.54V85.9228Z" fill="white"/>
<path d="M224.441 104.943V175.243L149.863 263.923V252.432L200.602 191.864V191.79L208.475 182.451V182.491L216.567 172.832V95.5039L224.441 104.943Z" fill="white"/>
<path d="M99.1227 45.1599V56.9652L133.021 16.3679L132.803 264.441L123.617 253.479V39.9853L99.1227 69.2253V224.239L90.3733 213.799V55.5319L82.5 64.8693V216.409L136.061 280.336L140.676 274.864V7.51595V5.00794L136.763 0.335938L99.1227 45.1599ZM115.639 243.953L106.996 233.639V71.8373L115.744 61.3919V244.079L115.639 243.953Z" fill="url(#paint1_linear_33_42)"/>
</g>
<defs>
<linearGradient id="paint0_linear_33_42" x1="183.541" y1="66.6992" x2="191.415" y2="66.6992" gradientUnits="userSpaceOnUse">
<stop stop-color="#B3854F"/>
<stop offset="1e-08" stop-color="#B3854F"/>
<stop offset="1" stop-color="#E1B277"/>
</linearGradient>
<linearGradient id="paint1_linear_33_42" x1="82.5008" y1="140.336" x2="140.676" y2="140.336" gradientUnits="userSpaceOnUse">
<stop stop-color="#B3854F"/>
<stop offset="1e-08" stop-color="#B3854F"/>
<stop offset="1" stop-color="#E1B277"/>
</linearGradient>
<clipPath id="clip0_33_42">
<rect width="281" height="281" fill="white"/>
</clipPath>
</defs>
</svg>
